<svg width="37" height="36" viewBox="0 0 37 36" fill="none" xmlns="http://www.w3.org/2000/svg">
<path d="M30.3844 10.9259C29.9452 10.6221 29.4146 10.4789 28.8822 10.5205C28.3497 10.562 27.8478 10.7857 27.4609 11.1539C25.7051 12.4542 23.6336 13.2616 21.4609 13.4924C21.0712 13.4823 20.7007 13.3208 20.428 13.0422C20.1553 12.7636 20.0017 12.3898 19.9999 11.9999V10.4474C22.2982 10.4559 24.5119 9.58164 26.1842 8.0051C27.8565 6.42857 28.8596 4.27013 28.9864 1.97538C29.0192 1.70988 28.9911 1.44039 28.9041 1.18741C28.8171 0.934426 28.6735 0.704613 28.4844 0.515446C28.2952 0.326278 28.0654 0.182737 27.8124 0.0957381C27.5594 0.00873893 27.2899 -0.0194273 27.0244 0.0133812C24.2419 0.128881 20.1499 2.29338 19.2979 5.56339C18.7877 3.6605 17.8539 1.89757 16.5664 0.406382C16.2865 0.128925 15.9087 -0.0272272 15.5146 -0.0283146C15.1204 -0.029402 14.7417 0.124663 14.4603 0.400571C14.1789 0.676479 14.0174 1.05206 14.0106 1.44612C14.0039 1.84018 14.1526 2.22105 14.4244 2.50638C15.9189 4.35463 16.7932 6.62662 16.9234 8.99989H13.2499C9.77128 9.10619 6.47646 10.5865 4.08683 13.1167C1.69719 15.6469 0.407434 19.0209 0.499923 22.4999C0.258423 30.8999 8.96592 38.6594 16.6249 35.0774C17.2099 34.7055 17.8897 34.5103 18.5829 34.5154C19.276 34.5204 19.953 34.7255 20.5324 35.1059C21.5117 35.6721 22.6189 35.9797 23.7499 35.9999C36.8194 35.8829 41.0959 17.8109 30.3844 10.9259Z" fill="#F19043"/>
</svg>
