<svg width="40" height="40" viewBox="0 0 40 40" fill="none" xmlns="http://www.w3.org/2000/svg">
<path d="M-0.00020487 13.3471V3.34709C-0.00136025 2.84288 0.111882 2.34498 0.330998 1.89087C0.550113 1.43676 0.869391 1.03828 1.2648 0.725421C1.65722 0.410183 2.11649 0.188794 2.60754 0.078163C3.0986 -0.0324681 3.60844 -0.0294155 4.09813 0.0870876C5.65774 0.504603 7.09627 1.28563 8.29589 2.36619C9.49552 3.44675 10.4221 4.79611 10.9998 6.30375C13.9336 5.49542 16.9572 5.05757 19.9998 5.00042C23.0424 5.05757 26.0659 5.49542 28.9998 6.30375C29.5778 4.79547 30.5052 3.44568 31.7057 2.36506C32.9063 1.28444 34.3459 0.503781 35.9065 0.0870876C36.3964 -0.0260051 36.9054 -0.0270976 37.3958 0.0838917C37.8862 0.194881 38.3452 0.415091 38.7386 0.728115C39.1321 1.04114 39.4498 1.43891 39.6682 1.89179C39.8865 2.34467 39.9999 2.84098 39.9998 3.34375V13.3438C37.251 13.4113 34.5443 14.035 32.0431 15.1771C28.8399 16.5417 26.1298 18.8521 24.2754 21.799C22.421 24.7459 21.5108 28.1888 21.6665 31.6671C21.6665 32.1091 21.4909 32.533 21.1783 32.8456C20.8657 33.1582 20.4418 33.3338 19.9998 33.3338C19.5578 33.3338 19.1338 33.1582 18.8213 32.8456C18.5087 32.533 18.3331 32.1091 18.3331 31.6671C18.4902 28.1872 17.5806 24.7424 15.7262 21.7937C13.8718 18.8449 11.1609 16.5329 7.95646 15.1671C5.45403 14.0303 2.74758 13.4112 -0.00020487 13.3471V13.3471ZM33.3331 18.3338C33.0353 19.7289 32.2726 20.9816 31.1698 21.8867C30.067 22.7918 28.6896 23.2955 27.2631 23.3154C25.699 25.814 24.9113 28.7206 24.9998 31.6671C24.9998 32.9932 24.473 34.2649 23.5353 35.2026C22.5976 36.1403 21.3259 36.6671 19.9998 36.6671C18.6737 36.6671 17.4019 36.1403 16.4643 35.2026C15.5266 34.2649 14.9998 32.9932 14.9998 31.6671C15.0883 28.7206 14.3006 25.814 12.7365 23.3154C11.31 23.2955 9.93256 22.7918 8.82978 21.8867C7.72701 20.9816 6.96426 19.7289 6.66646 18.3338C4.58035 17.3339 2.31143 16.7724 -0.00020487 16.6838C0.0522143 21.4604 1.97962 26.0251 5.36646 29.3938L13.1281 37.1554C14.957 38.9632 17.4249 39.9771 19.9965 39.9771C22.568 39.9771 25.0359 38.9632 26.8648 37.1554L34.6265 29.3938C38.0158 26.0262 39.9456 21.4613 39.9998 16.6838C37.6882 16.7724 35.4192 17.3339 33.3331 18.3338V18.3338Z" fill="white" fill-opacity="0.8"/>
</svg>
