<svg width="37" height="36" viewBox="0 0 37 36" fill="none" xmlns="http://www.w3.org/2000/svg">
<path d="M18.2419 24.693C16.216 21.9261 14.3697 19.0322 12.7144 16.029C14.9974 11.5635 16.9999 6.2835 16.9999 1.5C16.9999 1.10218 16.8418 0.720644 16.5605 0.43934C16.2792 0.158035 15.8977 0 15.4999 0C15.102 0 14.7205 0.158035 14.4392 0.43934C14.1579 0.720644 13.9999 1.10218 13.9999 1.5C13.7865 5.38288 12.7674 9.17886 11.0074 12.6465C9.24255 9.17983 8.21834 5.38389 7.99985 1.5C7.99985 1.10218 7.84182 0.720644 7.56051 0.43934C7.27921 0.158035 6.89768 0 6.49985 0C6.10203 0 5.7205 0.158035 5.43919 0.43934C5.15789 0.720644 4.99985 1.10218 4.99985 1.5C4.99985 6.261 7.01285 11.55 9.30185 16.0275C7.65229 19.0379 5.80055 21.9331 3.75935 24.693C2.97278 25.0937 2.2847 25.6637 1.74454 26.3619C1.20438 27.0602 0.825531 27.8693 0.635205 28.7313C0.444879 29.5934 0.447797 30.4868 0.643749 31.3476C0.839701 32.2083 1.22382 33.015 1.76854 33.7097C2.31325 34.4044 3.00503 34.9698 3.7942 35.3654C4.58338 35.761 5.45036 35.977 6.33289 35.9978C7.21543 36.0185 8.09161 35.8436 8.89852 35.4856C9.70544 35.1276 10.4231 34.5953 10.9999 33.927C11.577 34.5936 12.2945 35.1242 13.1008 35.4808C13.9072 35.8375 14.7824 36.0114 15.6639 35.99C16.5453 35.9686 17.4111 35.7524 18.1992 35.357C18.9873 34.9617 19.6782 34.3968 20.2223 33.7031C20.7664 33.0093 21.1503 32.2037 21.3465 31.3441C21.5426 30.4845 21.5462 29.5921 21.3569 28.731C21.1676 27.8698 20.7902 27.0612 20.2516 26.3631C19.7131 25.665 19.0268 25.0947 18.2419 24.693V24.693ZM6.49985 33C5.90651 33 5.32649 32.8241 4.83314 32.4944C4.33979 32.1648 3.95528 31.6962 3.72821 31.1481C3.50115 30.5999 3.44174 29.9967 3.55749 29.4147C3.67325 28.8328 3.95897 28.2982 4.37853 27.8787C4.79809 27.4591 5.33264 27.1734 5.91458 27.0576C6.49652 26.9419 7.09972 27.0013 7.6479 27.2284C8.19608 27.4554 8.66462 27.8399 8.99426 28.3333C9.3239 28.8266 9.49985 29.4067 9.49985 30C9.49985 30.7956 9.18378 31.5587 8.62117 32.1213C8.05856 32.6839 7.2955 33 6.49985 33ZM7.82435 24.1575C8.70185 22.8915 9.82985 21.171 11.0074 19.1445C12.1834 21.1695 13.3084 22.8945 14.1829 24.156C12.9451 24.4405 11.8302 25.112 10.9999 26.073C10.1709 25.1143 9.059 24.4436 7.82435 24.1575V24.1575ZM15.4999 33C14.9065 33 14.3265 32.8241 13.8331 32.4944C13.3398 32.1648 12.9553 31.6962 12.7282 31.1481C12.5011 30.5999 12.4417 29.9967 12.5575 29.4147C12.6733 28.8328 12.959 28.2982 13.3785 27.8787C13.7981 27.4591 14.3326 27.1734 14.9146 27.0576C15.4965 26.9419 16.0997 27.0013 16.6479 27.2284C17.1961 27.4554 17.6646 27.8399 17.9943 28.3333C18.3239 28.8266 18.4999 29.4067 18.4999 30C18.4999 30.7956 18.1838 31.5587 17.6212 32.1213C17.0586 32.6839 16.2955 33 15.4999 33ZM27.4999 9V12H34.9999C35.3977 12 35.7792 12.158 36.0605 12.4393C36.3418 12.7206 36.4999 13.1022 36.4999 13.5C36.4999 13.8978 36.3418 14.2794 36.0605 14.5607C35.7792 14.842 35.3977 15 34.9999 15H27.4999V18H34.9999C35.3977 18 35.7792 18.158 36.0605 18.4393C36.3418 18.7206 36.4999 19.1022 36.4999 19.5C36.4999 19.8978 36.3418 20.2794 36.0605 20.5607C35.7792 20.842 35.3977 21 34.9999 21H27.4999V24H34.9999C35.3977 24 35.7792 24.158 36.0605 24.4393C36.3418 24.7206 36.4999 25.1022 36.4999 25.5C36.4999 25.8978 36.3418 26.2794 36.0605 26.5607C35.7792 26.842 35.3977 27 34.9999 27H27.4999V34.5C27.4999 34.8978 27.3418 35.2794 27.0605 35.5607C26.7792 35.842 26.3977 36 25.9999 36C25.602 36 25.2205 35.842 24.9392 35.5607C24.6579 35.2794 24.4999 34.8978 24.4999 34.5V7.5C24.5022 5.51161 25.2932 3.60534 26.6992 2.19933C28.1052 0.793323 30.0115 0.00238179 31.9999 0L34.9999 0C35.3977 0 35.7792 0.158035 36.0605 0.43934C36.3418 0.720644 36.4999 1.10218 36.4999 1.5C36.4999 1.89782 36.3418 2.27936 36.0605 2.56066C35.7792 2.84196 35.3977 3 34.9999 3H31.9999C31.0725 3.00384 30.1689 3.29413 29.4128 3.83113C28.6567 4.36814 28.085 5.12564 27.7759 6H34.9999C35.3977 6 35.7792 6.15804 36.0605 6.43934C36.3418 6.72064 36.4999 7.10218 36.4999 7.5C36.4999 7.89782 36.3418 8.27936 36.0605 8.56066C35.7792 8.84196 35.3977 9 34.9999 9H27.4999Z" fill="#F19043"/>
</svg>
