<svg width="37" height="36" viewBox="0 0 37 36" fill="none" xmlns="http://www.w3.org/2000/svg">
<path d="M24.5 4.125C24.5 7.3695 20.27 11.4015 18.1625 13.092C17.8327 13.3564 17.4227 13.5005 17 13.5005C16.5773 13.5005 16.1673 13.3564 15.8375 13.092C13.73 11.4 9.5 7.3695 9.5 4.125C9.45269 3.08133 9.82067 2.06141 10.5234 1.28836C11.2262 0.515311 12.2066 0.0520777 13.25 0C14.2934 0.0520777 15.2738 0.515311 15.9766 1.28836C16.6793 2.06141 17.0473 3.08133 17 4.125C16.9527 3.08133 17.3207 2.06141 18.0234 1.28836C18.7262 0.515311 19.7066 0.0520777 20.75 0C21.7934 0.0520777 22.7738 0.515311 23.4766 1.28836C24.1793 2.06141 24.5473 3.08133 24.5 4.125V4.125ZM35.507 18.525L23.957 31.1385C22.5508 32.6718 20.841 33.8958 18.9363 34.7328C17.0315 35.5697 14.9735 36.0013 12.893 36H6.5C4.9087 36 3.38258 35.3679 2.25736 34.2426C1.13214 33.1174 0.5 31.5913 0.5 30V22.5C0.5 20.9087 1.13214 19.3826 2.25736 18.2574C3.38258 17.1321 4.9087 16.5 6.5 16.5H18.1805C18.6763 16.501 19.1657 16.6127 19.6128 16.8271C20.0598 17.0416 20.4533 17.3532 20.7645 17.7392C21.0756 18.1253 21.2966 18.576 21.4111 19.0584C21.5256 19.5409 21.5309 20.0428 21.4265 20.5275C21.2641 21.2055 20.8983 21.8178 20.3782 22.2821C19.8581 22.7464 19.2085 23.0407 18.5165 23.1255L12.272 24C11.8784 24.0565 11.5234 24.2669 11.2849 24.585C11.0463 24.9031 10.9439 25.3029 11 25.6965C11.0561 26.0903 11.2663 26.4458 11.5845 26.6846C11.9027 26.9234 12.3027 27.0261 12.6965 26.97L19.0745 26.07C20.5767 25.8488 21.9499 25.0966 22.9453 23.9499C23.9406 22.8032 24.4922 21.3379 24.5 19.8195C24.4927 19.4984 24.4601 19.1785 24.4025 18.8625L29.7155 13.257C30.4161 12.4984 31.3885 12.0478 32.4202 12.0037C33.4519 11.9595 34.4592 12.3255 35.222 13.0215C35.981 13.7171 36.4362 14.6831 36.4895 15.7112C36.5428 16.7393 36.19 17.7472 35.507 18.5175V18.525Z" fill="#F19043"/>
</svg>
