<svg width="40" height="40" viewBox="0 0 40 40" fill="none" xmlns="http://www.w3.org/2000/svg">
<path d="M39.2252 24.5412C38.88 24.122 38.4372 23.794 37.9357 23.5859C37.4341 23.3779 36.8891 23.2961 36.3485 23.3479C33.2381 23.5301 30.2339 24.5456 27.6508 26.288C25.0677 28.0304 23.0009 30.4355 21.6669 33.2512V23.1929C23.9957 22.7962 26.1093 21.5891 27.6343 19.7848C29.1592 17.9805 29.9972 15.6953 30.0002 13.3329C30.0002 8.67791 26.7619 4.74624 23.5935 1.51458C23.4102 1.3269 23.2118 1.15465 23.0002 0.999577C21.0862 4.81284 20.0606 9.01002 20.0002 13.2762C20.0077 13.4951 19.9719 13.7133 19.895 13.9184C19.8181 14.1234 19.7016 14.3113 19.5521 14.4714C19.4026 14.6314 19.2231 14.7604 19.0237 14.851C18.8243 14.9417 18.6091 14.9921 18.3902 14.9996C18.1713 15.007 17.9531 14.9713 17.7481 14.8944C17.543 14.8175 17.3551 14.701 17.1951 14.5515C17.0351 14.402 16.9061 14.2224 16.8154 14.0231C16.7248 13.8237 16.6743 13.6084 16.6669 13.3896C16.6846 8.77122 17.7358 4.2154 19.7435 0.0562439C18.4889 0.106048 17.299 0.62605 16.4102 1.51291C13.2385 4.74624 10.0002 8.67791 10.0002 13.3329C10.0032 15.6953 10.8412 17.9805 12.3662 19.7848C13.8911 21.5891 16.0047 22.7962 18.3335 23.1929V33.2529C16.9999 30.4367 14.9332 28.0312 12.3501 26.2885C9.76694 24.5458 6.76256 23.5301 3.65188 23.3479C3.11136 23.2964 2.56646 23.3783 2.06494 23.5863C1.56341 23.7944 1.12057 24.1223 0.77521 24.5412C0.432065 24.9487 0.193142 25.4334 0.0790349 25.9537C-0.0350725 26.474 -0.0209415 27.0143 0.12021 27.5279C3.51854 39.7579 19.3185 39.9996 19.9902 39.9996H20.0102C20.6769 39.9996 36.4835 39.7579 39.8819 27.5279C40.0222 27.0141 40.0358 26.4739 39.9214 25.9537C39.807 25.4335 39.5681 24.9488 39.2252 24.5412V24.5412Z" fill="#EDD7D0"/>
</svg>
