<svg width="37" height="36" viewBox="0 0 37 36" fill="none" xmlns="http://www.w3.org/2000/svg">
<path d="M36.488 18.2388C36.4523 20.8645 35.8376 23.4499 34.688 25.8108C34.5775 25.8097 34.4673 25.8212 34.3595 25.8453C31.6328 26.647 28.8014 27.0358 25.9595 26.9988C22.9002 27.0844 19.8471 26.6793 16.916 25.7988C16.5675 25.6806 16.2538 25.4776 16.0034 25.2079C15.753 24.9383 15.5736 24.6105 15.4815 24.2542C15.3893 23.8979 15.3873 23.5243 15.4757 23.167C15.564 22.8098 15.7399 22.4801 15.9875 22.2078C16.4926 21.6458 17.0326 21.1162 17.6045 20.6223C17.8996 20.3848 18.2511 20.2278 18.6249 20.1665C18.9987 20.1053 19.382 20.1419 19.7375 20.2728C21.6552 20.9126 23.6634 21.2397 25.685 21.2418C29.4866 21.2027 33.2115 20.1672 36.488 18.2388V18.2388ZM23.372 18.0348C23.712 18.09 24.0601 18.0657 24.3892 17.9639C24.7182 17.8621 25.0192 17.6855 25.2687 17.448C25.5181 17.2105 25.7092 16.9185 25.8269 16.5948C25.9447 16.2711 25.986 15.9246 25.9475 15.5823C25.253 9.9133 22.6883 4.63763 18.659 0.589812C18.5058 0.423725 18.3928 0.224578 18.329 0.0078125C15.9561 0.0252067 13.6104 0.515247 11.429 1.44931C13.7058 3.14804 15.6119 5.29366 17.0305 7.75478C18.449 10.2159 19.3503 12.9407 19.679 15.7623C19.7408 16.1965 19.9295 16.6027 20.2215 16.9299C20.5135 17.2571 20.8957 17.4907 21.32 17.6013C21.9937 17.7909 22.6792 17.9357 23.372 18.0348V18.0348ZM31.883 17.0703C33.4074 16.5108 34.8596 15.7716 36.209 14.8683C35.5903 11.3933 33.965 8.1763 31.5348 5.61647C29.1045 3.05664 25.9762 1.26657 22.538 0.468312C26.0445 4.68366 28.2606 9.82103 28.9205 15.2643C28.9609 15.5957 29.0758 15.9136 29.2566 16.1943C29.4373 16.4749 29.6793 16.711 29.9644 16.8847C30.2494 17.0585 30.5701 17.1655 30.9024 17.1976C31.2347 17.2298 31.5699 17.1862 31.883 17.0703V17.0703ZM25.7 29.9988C22.0054 30.0601 18.3288 29.4706 14.8385 28.2573C14.5575 28.1546 14.2583 28.1114 13.9598 28.1304C13.6612 28.1494 13.3699 28.2302 13.1042 28.3677C12.8385 28.5052 12.6043 28.6964 12.4164 28.9291C12.2284 29.1619 12.0909 29.4311 12.0125 29.7198C11.6107 31.3028 11.4295 32.9337 11.474 34.5663C15.0434 36.0836 19.0077 36.4057 22.7752 35.4847C26.5427 34.5636 29.9113 32.4487 32.378 29.4558C30.1775 29.8729 27.9389 30.0549 25.7 29.9988V29.9988ZM16.7 16.2453C16.6048 15.3604 16.4428 14.4839 16.2155 13.6233C16.1172 13.266 15.9303 12.9394 15.672 12.6737C15.4137 12.408 15.0925 12.2118 14.7382 12.1035C14.3838 11.9951 14.0078 11.9781 13.6451 12.0539C13.2824 12.1298 12.9447 12.2961 12.6635 12.5373C8.33928 16.3334 5.25589 21.3415 3.81349 26.9118C3.7402 27.3294 3.69361 27.7513 3.67399 28.1748C4.96158 30.0473 6.58989 31.6608 8.47399 32.9313C8.63419 30.0893 9.37406 27.31 10.6481 24.7645C11.9222 22.2189 13.7035 19.9609 15.8825 18.1293C16.1626 17.9062 16.3836 17.6177 16.5261 17.2892C16.6687 16.9607 16.7284 16.6023 16.7 16.2453V16.2453ZM12.1505 6.16231C11.0643 4.96727 9.8192 3.92705 8.44999 3.07081C5.12507 5.29193 2.63927 8.56206 1.38877 12.3601C0.13827 16.158 0.195026 20.2653 1.54999 24.0273C3.49335 18.2222 7.0755 13.1037 11.864 9.28981C12.0949 9.108 12.2864 8.88103 12.4266 8.62277C12.5669 8.3645 12.6531 8.08036 12.6799 7.78768C12.7067 7.495 12.6736 7.19993 12.5826 6.92048C12.4916 6.64103 12.3445 6.38306 12.1505 6.16231Z" fill="#F19043"/>
</svg>
